<?xml version="1.0" encoding="utf-8"?>
<!-- Generator: Adobe Illustrator 19.0.0, SVG Export Plug-In . SVG Version: 6.00 Build 0)  -->
<svg version="1.1" id="layer" xmlns="http://www.w3.org/2000/svg" xmlns:xlink="http://www.w3.org/1999/xlink" x="0px" y="0px"
	 viewBox="-153 -46 652 652" style="enable-background:new -153 -46 652 652;" xml:space="preserve">
<style type="text/css">
	.st0{fill-rule:evenodd;clip-rule:evenodd;}
	.st1{fill:#008E4F;}
	.st2{fill:none;stroke:#008E4F;stroke-width:1.4693;stroke-miterlimit:3.864;}
	.st3{fill:none;stroke:#FFFFFF;stroke-width:1.4693;stroke-miterlimit:3.864;}
	.st4{fill:#FFFFFF;}
	.st5{fill:none;stroke:#FFFFFF;stroke-width:0.6297;stroke-miterlimit:3.864;}
	.st6{fill-rule:evenodd;clip-rule:evenodd;fill:#FFFFFF;}
</style>
<g>
	<path class="st0" d="M-125.8,421.1V420h4.5v-26.6c-2.9,0-5,0.6-6.2,1.9c-1.2,1.2-2.1,3.3-2.5,6.2h-1.4l0.5-9.2h24.7l0.5,9.2h-1.3
		c-0.4-2.9-1.2-5-2.5-6.2c-1.2-1.3-3.3-1.9-6.2-1.9V420h4.5v1.1H-125.8z"/>
	<polygon class="st0" points="-93.2,406.8 -93.2,420 -89,420 -89,421.1 -103,421.1 -103,420 -98.7,420 -98.7,393.4 -103,393.4 
		-103,392.3 -89,392.3 -89,393.4 -93.2,393.4 -93.2,405.7 -81.8,405.7 -81.8,393.4 -86,393.4 -86,392.3 -72,392.3 -72,393.4 
		-76.3,393.4 -76.3,420 -72,420 -72,421.1 -86,421.1 -86,420 -81.8,420 -81.8,406.8 	"/>
	<path class="st0" d="M-59.5,393.4v12.4c2.3,0,4-0.3,5-1c1-0.7,1.5-2.1,1.5-4.3h1.2v12h-1.2c0-2.3-0.5-3.8-1.5-4.6
		c-0.9-0.8-2.6-1.1-5.1-1.1V420h6.1c2.6,0,4.4-0.7,5.4-2c1-1.3,1.8-3.4,2.3-6.2h1.2l-0.4,9.3h-24.5V420h4.3v-26.6h-4.3v-1.1h23.8
		l0.3,7.7h-1.2c-0.4-2-1-3.4-1.8-4.4c-0.7-1-1.5-1.6-2.3-1.8c-0.8-0.2-1.6-0.4-2.3-0.4c-0.7-0.1-1.4-0.1-2-0.1H-59.5z"/>
	<path class="st0" d="M-23.3,411.3h8.4l-4-12L-23.3,411.3z M-31.2,421.1V420h3.5l10.3-28.3h1.5l9.9,28.3h3.4v1.1h-13.6V420h4.5
		l-2.6-7.6h-9.3l-2.7,7.6h4.4v1.1H-31.2z"/>
	<path class="st0" d="M21.8,400.4c-0.5-2.2-1.5-4-2.8-5.4c-1.3-1.5-3.1-2.2-5.3-2.2c-2.5,0-4.3,0.6-5.4,1.9
		c-1.1,1.3-1.7,2.8-1.9,4.6C6.1,401,6,403.4,6,406.4v2.8c0,3.5,0.4,6.3,1.3,8.3c0.9,2,2.8,3.1,5.8,3.1c1.8,0,3.1-0.4,4-1.2
		c0.9-0.9,1.4-2.7,1.4-5.5c0-0.3,0-0.7,0-1.1v-1.1H14v-1.1h13.5v1.1h-3c0,3.1-1,5.6-3.1,7.4c-2,1.8-4.6,2.7-7.8,2.7
		c-2.4,0-4.4-0.4-6-1.2c-1.6-0.8-3-2-4.4-3.6c-1.3-1.6-2.3-3.2-2.8-4.9c-0.5-1.7-0.7-3.4-0.7-5.3c0-2,0.3-3.8,1-5.5
		c0.7-1.7,1.7-3.4,3-4.9c1.3-1.6,2.7-2.7,4.2-3.5c1.6-0.8,3.3-1.2,5.3-1.2c1.5,0,2.8,0.2,3.8,0.5c1,0.3,2.2,0.9,3.4,1.7l1.7-1.8H23
		v8.3H21.8z"/>
	<path class="st0" d="M36.5,411.3h8.4l-4-12L36.5,411.3z M28.6,421.1V420h3.5l10.3-28.3h1.5l9.9,28.3h3.4v1.1H43.5V420H48l-2.6-7.6
		h-9.3l-2.7,7.6h4.4v1.1H28.6z"/>
	<path class="st0" d="M85.8,421.1V420h4.4l-11-13.9l12-12.7h-4.9v-1.1h10.8v1.1h-4.2l-9.4,9.9L97.2,420h2v1.1H85.8z M78.8,420H83
		v1.1H69V420h4.3v-26.6H69v-1.1h14v1.1h-4.3V420z"/>
	<polygon class="st0" points="110.1,406.8 110.1,420 114.4,420 114.4,421.1 100.3,421.1 100.3,420 104.6,420 104.6,393.4 
		100.3,393.4 100.3,392.3 114.4,392.3 114.4,393.4 110.1,393.4 110.1,405.7 121.5,405.7 121.5,393.4 117.3,393.4 117.3,392.3 
		131.3,392.3 131.3,393.4 127.1,393.4 127.1,420 131.3,420 131.3,421.1 117.3,421.1 117.3,420 121.5,420 121.5,406.8 	"/>
	<path class="st0" d="M140.6,411.3h8.4l-4-12L140.6,411.3z M132.7,421.1V420h3.5l10.3-28.3h1.5l9.9,28.3h3.4v1.1h-13.6V420h4.5
		l-2.6-7.6h-9.3l-2.7,7.6h4.4v1.1H132.7z"/>
	<polygon class="st0" points="187.2,421.6 186,421.6 167.7,394.3 167.7,420 171.9,420 171.9,421.1 162.1,421.1 162.1,420 166.3,420 
		166.3,393.4 162.1,393.4 162.1,392.3 173.1,392.3 185.9,411.1 185.9,393.4 181.7,393.4 181.7,392.3 191.5,392.3 191.5,393.4 
		187.2,393.4 	"/>
	<path class="st0" d="M233.6,392.3v1.1h-4.3v18.1c0,2.1-0.2,3.8-0.6,5c-0.4,1.2-1.2,2.4-2.5,3.5c-1.3,1.1-3.9,1.7-7.8,1.7
		c-1.5,0-2.9-0.2-4.2-0.6c-1.3-0.4-2.7-1.1-4-2.1c-1.3-1-2-3.8-2-8.5v-17h-4.3v-1.1h14v1.1h-4.3v15.8v2.3c0,3.8,0.6,6.2,1.8,7.3
		c1.2,1.1,3,1.6,5.4,1.6c2.4,0,4.3-0.7,5.4-2.1c1.2-1.4,1.8-3.4,1.8-5.9v-19h-4.2v-1.1H233.6z"/>
	<polygon class="st0" points="260.2,421.6 258.9,421.6 240.6,394.3 240.6,420 244.8,420 244.8,421.1 235,421.1 235,420 239.2,420 
		239.2,393.4 235,393.4 235,392.3 246,392.3 258.8,411.1 258.8,393.4 254.7,393.4 254.7,392.3 264.5,392.3 264.5,393.4 260.2,393.4 
			"/>
	<polygon class="st0" points="276.4,420 280.7,420 280.7,421.1 266.6,421.1 266.6,420 270.9,420 270.9,393.4 266.6,393.4 
		266.6,392.3 280.7,392.3 280.7,393.4 276.4,393.4 	"/>
	<polygon class="st0" points="297.1,421.7 295.9,421.7 285.6,393.4 282,393.4 282,392.3 295.7,392.3 295.7,393.4 291.2,393.4 
		298.6,413.5 305.8,393.4 301.4,393.4 301.4,392.3 310.7,392.3 310.7,393.4 307.1,393.4 	"/>
	<path class="st0" d="M322,393.4v12.4c2.3,0,4-0.3,5-1c1-0.7,1.5-2.1,1.5-4.3h1.2v12h-1.2c0-2.3-0.5-3.8-1.5-4.6
		c-0.9-0.8-2.6-1.1-5.1-1.1V420h6.1c2.6,0,4.4-0.7,5.4-2c1-1.3,1.8-3.4,2.3-6.2h1.2l-0.4,9.3h-24.5V420h4.3v-26.6h-4.3v-1.1H336
		l0.3,7.7h-1.2c-0.4-2-1-3.4-1.8-4.4c-0.7-1-1.5-1.6-2.3-1.8c-0.8-0.2-1.6-0.4-2.3-0.4c-0.7-0.1-1.4-0.1-2-0.1H322z"/>
	<path class="st0" d="M351.2,405.2h3.5c1.9,0,3.3-0.5,4.2-1.4c0.9-0.9,1.3-2.4,1.3-4.3c0-2.4-0.4-3.9-1.2-4.8
		c-0.7-0.9-2.1-1.3-4.1-1.3h-3.7V405.2z M351.2,420h4.3v1.1h-14V420h4.3v-26.6h-4.3v-1.1h14.4c4,0,6.7,0.6,8.1,1.7
		c1.4,1.1,2.2,2.7,2.2,4.8c0,2.2-0.9,3.8-2.7,4.9c-1.8,1.1-3.9,1.8-6.4,2c3.2,0.5,5.4,1.7,6.5,3.5c1.1,1.8,1.7,4.5,1.7,8.3
		c0,0.8,0.1,1.5,0.4,1.9c0.3,0.5,1,0.7,2.1,0.7c0.6,0,1.2-0.1,1.8-0.2v1c-0.7,0.2-1.4,0.3-1.9,0.4c-0.5,0.1-1.1,0.1-1.8,0.1
		c-4.4,0-6.6-2.2-6.6-6.6c0-3.8-0.6-6.2-1.8-7.2c-1.2-1-2.5-1.5-3.9-1.5h-2.4V420z"/>
	<path class="st0" d="M374.2,421.3h-0.7v-8.6h1.2c0.5,2.3,1.4,4.1,2.7,5.6c1.3,1.5,3.1,2.2,5.2,2.2c1.7,0,3.3-0.6,4.5-1.7
		c1.3-1.1,1.9-2.6,1.9-4.4c0-2-0.7-3.4-2-4c-1.4-0.6-2.9-1.3-4.8-1.9l-2.6-0.9c-2-0.6-3.4-1.6-4.5-3.1c-1-1.4-1.5-3.2-1.5-5.3
		c0-2.3,0.7-4.1,2.2-5.6c1.5-1.5,3.4-2.2,5.6-2.2c1.3,0,2.4,0.2,3.4,0.5c0.9,0.3,1.9,0.9,2.9,1.6l1.6-1.7h0.8v8.1h-1.4
		c-0.3-2.2-1-3.9-2.4-5.3c-1.3-1.4-3-2.2-5.1-2.2c-1.4,0-2.7,0.5-3.7,1.4c-1.1,0.9-1.6,2.1-1.6,3.5c0,1.7,0.5,2.8,1.4,3.2
		c0.9,0.4,2.1,0.8,3.5,1.2l2.7,0.8c0.4,0.1,0.9,0.3,1.5,0.5c0.5,0.2,1.3,0.5,2.4,1c1.1,0.5,2,1.4,2.8,2.8c0.8,1.4,1.2,3.1,1.2,5.1
		c0,2.8-0.8,5-2.5,6.8c-1.6,1.7-3.8,2.6-6.6,2.6c-1.1,0-2.2-0.2-3.3-0.6c-1.1-0.4-2.1-0.9-2.8-1.6L374.2,421.3z"/>
	<polygon class="st0" points="405.6,420 409.8,420 409.8,421.1 395.8,421.1 395.8,420 400.1,420 400.1,393.4 395.8,393.4 
		395.8,392.3 409.8,392.3 409.8,393.4 405.6,393.4 	"/>
</g>
<g>
	<path class="st0" d="M418.3,421.1V420h4.5v-26.6c-2.9,0-5,0.6-6.2,1.9c-1.2,1.2-2.1,3.3-2.5,6.2h-1.4l0.5-9.2h24.7l0.5,9.2h-1.3
		c-0.4-2.9-1.2-5-2.5-6.2c-1.2-1.3-3.3-1.9-6.2-1.9V420h4.5v1.1H418.3z"/>
	<polygon class="st0" points="447.6,421.1 447.6,420 452.2,420 452.2,408 443.1,393.4 440,393.4 440,392.3 454,392.3 454,393.4 
		449.5,393.4 456.9,405.7 463.8,393.4 459.3,393.4 459.3,392.3 468.6,392.3 468.6,393.4 465.2,393.4 457.7,407.1 457.7,420 
		462.4,420 462.4,421.1 	"/>
</g>
<g>
	<path class="st1" d="M55.5,241.6c0-61.5,49.9-111.4,111.4-111.4c61.5,0,111.4,49.9,111.4,111.4c0,61.5-49.9,111.4-111.4,111.4
		C105.4,353.1,55.5,303.2,55.5,241.6"/>
</g>
<g>
	<path class="st2" d="M55.5,241.6c0-61.5,49.9-111.4,111.4-111.4c61.5,0,111.4,49.9,111.4,111.4c0,61.5-49.9,111.4-111.4,111.4
		C105.4,353.1,55.5,303.2,55.5,241.6z"/>
</g>
<g>
	<path class="st3" d="M108.3,241.6c0-32.4,26.3-58.7,58.7-58.7c32.4,0,58.7,26.3,58.7,58.7c0,32.4-26.3,58.7-58.7,58.7
		C134.6,300.3,108.3,274.1,108.3,241.6z"/>
	<polygon class="st4" points="202.6,270 179.4,254 195.4,277.3 176.3,256.5 186.7,282.7 172.8,258.2 177.1,286.1 168.9,259.1 
		167,287.2 165,259.1 156.8,286.1 161.2,258.2 147.2,282.7 157.6,256.5 138.6,277.3 154.6,254 131.4,270 152.1,251 125.9,261.4 
		150.4,247.4 122.6,251.8 149.5,243.6 121.4,241.6 149.5,239.7 122.6,231.5 150.4,235.8 125.9,221.9 152.1,232.3 131.3,213.2 
		154.6,229.2 138.6,206 157.6,226.8 147.2,200.6 161.2,225.1 156.8,197.2 165,224.2 167,196.1 168.9,224.2 177.1,197.2 172.8,225.1 
		186.7,200.6 176.3,226.8 195.4,206 179.4,229.2 202.6,213.2 181.8,232.3 208,221.9 183.5,235.8 211.4,231.5 184.4,239.7 
		212.5,241.6 184.4,243.6 211.4,251.8 183.5,247.4 208,261.4 181.8,251 	"/>
	<polygon class="st5" points="202.6,270 179.4,254 195.4,277.3 176.3,256.5 186.7,282.7 172.8,258.2 177.1,286.1 168.9,259.1 
		167,287.2 165,259.1 156.8,286.1 161.2,258.2 147.2,282.7 157.6,256.5 138.6,277.3 154.6,254 131.4,270 152.1,251 125.9,261.4 
		150.4,247.4 122.6,251.8 149.5,243.6 121.4,241.6 149.5,239.7 122.6,231.5 150.4,235.8 125.9,221.9 152.1,232.3 131.3,213.2 
		154.6,229.2 138.6,206 157.6,226.8 147.2,200.6 161.2,225.1 156.8,197.2 165,224.2 167,196.1 168.9,224.2 177.1,197.2 172.8,225.1 
		186.7,200.6 176.3,226.8 195.4,206 179.4,229.2 202.6,213.2 181.8,232.3 208,221.9 183.5,235.8 211.4,231.5 184.4,239.7 
		212.5,241.6 184.4,243.6 211.4,251.8 183.5,247.4 208,261.4 181.8,251 	"/>
	<path class="st6" d="M154.9,139.5c-0.4,3.4-0.7,6.8-2.5,9.7c-1.1-0.6-2.9-0.5-3.1-1.9c0-0.7,0.2-1.3,0.6-1.9
		c1.1,0.4,2.1,0.8,3.2,1.1c0.7-1.7,1.4-3.7,0.9-5.5c-0.7-0.9-1.4,0.7-1.9-0.1c0.4-0.9,0.4-2.3,1.5-2.6
		C154.5,138.1,154.7,139,154.9,139.5 M171.5,163.3c1.9,0,3.6-1.2,5.4-1.9c1.2-2.3-2.6-4.2,0-6.1c1.4,1.2,1.3,3.4,1.1,5.3
		c-0.1,3.6-4.2,4.4-6.7,5.5c-0.7,0.8-0.6,2.3-0.1,3.1c1.4,2.7,5.2,1.7,7.8,1.5c0.6-0.2,0.5-1.2,0.1-1.4c-1.2-1.2-2.6-3.1-4.4-2.3
		c-0.2-1.1,0.9-1.8,1.8-2.1c5.1-0.2,10.3-0.2,14,3.2c-0.6,3.4-4.6,2.3-6.9,3.4c-0.1,0.9,1.1,1.4,1.8,1.7c2.7,0.6,5.1-0.8,7.4-1.9
		c-0.4,0.7-0.5,2.1,0.1,2.9c1.7,1.7,4.3,1.5,6.4,1.5c0.7-1.5-0.7-3.3,0.1-5c0.9-1.3,2.3-2.3,3.9-2c3.2,0.1,4.6,4.6,8.2,3.4l-1.2,0.9
		c1.7,2.1,3.9,3.6,5.9,5.5c1.1-0.1,1.3-1.3,2-2c-0.7-1.3-2.1-2.1-2-3.8c0.4-3.4,3.9-5.6,5.9-7.7c-4.3,0.2-6.8,5.9-11.1,6.3
		c-2-1.9-1-4.6-0.5-6.9c-1.4-0.5-3,1.2-4.9,0.9c-4.3,0.7-11.2,2.8-13.9-1.7c-1.4-3.3,0.9-6.3,3.2-8.6c-1.1,1.7-2.5,4.9-0.9,7.1
		c0.6,1.2,1.8,1.5,2.8,1.9c2-1.2,2.6-3.7,2.6-6.1c0.9-3-3.4-6.1,0.4-7.8c2.5,4.4,0.6,9.9-1.7,13.7c2.1,1.2,4.9,0.4,7.3,0.2
		c2-0.5,4.5-0.4,5.6-2.1c-0.1-3.6-6.5-2.5-4.3-6.4c1.5-1.7,3.6-3.6,6.1-2.5c1.9,0.7,0.4,5.7,3.3,3.2c0.8-0.5,0.9-1.5,0.8-2.1
		l-1.5-0.7c0.6-0.9,1.4-1.5,2.4-1.4c1.2,0,1.7,1.2,1.1,2.1c-1.1,1.9-3.8,2.6-4.8,4.5c-0.1,3.7-5.8,7-1.7,10.5
		c4.9-0.5,7.2-5.7,12.1-6.3c0.4,0.1,0.4,1.1,0,1.4c-2.9,1.9-6.7,4.3-6.1,8.2c0.6,0.6,0.6,1.2,1.3,1.3h0.6l9-12
		c0.5-0.4,1.4-0.9,1.8-0.5l-0.9,4.6c0.8,0.4,1.4-0.8,2.4-0.4c0,5-9.7,10-2.4,14.3c1.3,0.5,2.4-0.7,2.7-1.9c1.2-3,1.1-7.5,4.8-8.6
		c0.7,1.4,0.7,3.6,0,5l-0.8-0.7c-1.4,1.7-1.2,4.8-3.6,6.3c-1.1,1.1-2.5,1.4-3.9,1.7c-2.1,0-4.2-2.5-5.9,0c-0.7,0.8-3,1.1-2.1,2.7
		c0.7,0.6,1.3-0.2,2-0.1c-0.2,0.9-1.3,1.3-2.1,1.7h-2.3c-0.4-3.9,5.2-3.9,6.4-6.5c-0.7-1.3,0.2-3.1-0.2-4.3c-1.7,0.6-3.2,1.3-5,1.4
		c-0.8,1.5-3.8,3.3-1.7,5.1c-0.5,1.7-2.7,1.1-4.3,1.4c-0.9,1.1-2,2.1-3.3,2.3l2.3-2.6c-2.3-1.5-5-2.3-7.8-2.7
		c-0.7,0.8,0.1,1.8,0.2,2.7c5,5.7,13,5.6,20.1,5.5c6.5-3.8,12-9.5,18.1-14.4c0.4-0.1,0.8,0,1.1-0.2c-3.8,4.4-9,8.9-13.8,13
		c-0.8,0.8-0.7,2.5-0.4,3.6c2,2.1,5.2,1.8,7.7,2c-0.1,1.1-1.7,2.4-0.7,3.8c1.9,2.1,4.6,4.6,7.3,5.3c-0.7-3.2-2.3-6.4-3.2-9.6
		c4-1.8,5.2,3.9,8.6,5.3c2.6,1.7,5.6,2.4,8.4,3.7c0.2,1.2-0.9,2.5-2,3.1c-0.8,0.4-1.8,0.6-2.6,0.4c0.7-0.7,2-2,1.8-3.3
		c-3.2-1-6.2-2.5-9.2-4.2c1.1,4.5,3.2,8.9,5.6,13c0,0.6-0.9,0.6-1.3,0.6l-1.3-0.2c-3.3-6.1-8.9-8.8-14-12.6
		c-0.9-1.2-1.1-2.7-0.4-4.2c-1.2-0.5-2.6,0.4-4-0.1c-1.3,0-2.4-0.8-3.4-2c-1.7,0.5-4,0.9-4.3,3.2c0.4,0.7,1.2,0.6,1.8,0.4
		c-0.4,0.8-1.9,0.8-2.9,1.2l-1.3-0.2c-0.5-1.5,1.2-3,2.4-3.6c1.4-0.5,2.8-0.9,4.2-1.7c-0.1-0.6,0.2-1.4-0.2-1.9
		c-3.1,2.9-8.9-0.9-10.8,3.6c-0.5,1.3-0.6,2.7,0.1,3.9c2.6,3.6,6.4,5.9,10.3,7.3c2.5-1.2-1.5-2.6-1.5-4.4c-0.5-1.7,0.7-3.1,2.1-3.2
		c1.9-0.4,4.2,0.1,5.1,1.8c1.4,2.5-3.2,4.4,0.2,6.3c2.6-0.8,6.3-0.9,8.7,0.7c3,1.3-2.1,3.4,0.4,4.8c3.7,0.6,7.5,0.7,10.3,3.2
		c3.9-1.3,7.8-3,11.6-4.6c0.5,0.1,0.9,0.1,1.4,0.2c-0.6,1.9-2.8,3.9-4.6,5v-1.5c-2.5,0.2-4.9,1.5-7.1,2.7c0.1,1.5,0.2,3.8-0.6,5.4
		c-1.4,2-3.7,0.7-5.7,1.3l2.4,2.6c-1,0.2-2.4,0.8-2.5,2.1c0.1,1.8,1.1,3.8,2.9,4.6c0.9-1.9,2.4-4.3,4.6-5c2.3-0.8,4.5,0.1,6.2,1.5
		c1.4,1,1.4,2.6,2.7,3.3c2.4,0,5.7-2,7.2,0.1c-2,0.8-3.8,2.3-6.1,2.5c0.1-0.6,0.1-1.5-0.8-1.2c-1.8,0.5-0.6,2.9-1.5,4
		c-0.6,0.6-0.5,1.7-1.4,1.9c0.2-1.8,0.2-3.8-0.6-5.3c-2.3,0.1-5,0.1-7.4,0.6c-0.7,0.4-0.6,1.4-0.1,1.9c1.7,2.3,3.3,4.9,4.8,7.4
		c-3.3,0.7-3.6-3.4-5.8-4.8c0.1,1.9-1.2,3.4-2.8,4.3c-2.9,1.5-6.9,0.8-9.4-0.9c-3-3.3-5.9-5.7-7.8-9.5c-0.2-1.9,0.4-3.6,1.5-5
		c3-1.9,7.2-1.7,10.6-0.7c-0.1-1.9,5.1-2.4,1.2-3.8l-3.6-3.3c-3.3,1.2-6.5,2.6-10.3,2c3.1-0.7,6.2-1.9,9.2-3.2
		c-1.1-2.1-2.3-4.2-2.4-6.7l-0.5-0.2c-0.5,2-2.7,2.6-4.5,2.9c-1.3,0-2.6-0.6-2.5-2c-0.8-2.7,2.6-5.7-1.3-7.1
		c-6.1,0.6-11.5-2.5-15.3-7.1c-0.6-1.8-0.2-3.9,0.7-5.6c0.4-0.2,0.7-0.6,1.1-0.9l-0.7-0.7c-5-0.7-11.1-2-12.8-7.6
		c-0.8,0.2-1.3,1.8-2.5,1.2c-1.4-1.4-0.2-3.7-1.3-5.1c-3.1,0.1-6.7,0.1-8-2.7c0-0.6,0-1.2-0.6-1.3c-1.9,1.2-4.4,2.3-6.9,1.4
		c-2.1-0.1-1.5-4.3-4.3-2.4c-0.8,0.6-2.4-0.2-2.9,1.3c0.1,0.4-0.2,0.8,0.4,1.1c0.4-0.1,0.8-0.1,1.1-0.4c0.5,1.1-0.8,2.1-1.8,2.5
		c-0.4,0.2-0.8,0.1-1.3,0.1c-0.6-1.2,0.5-2.5,0.6-3.8c-2.3-0.2-4.9-0.5-5.6-2.8c-0.4-1.3,0.2-3-0.6-4c-2.7,1.3-4-2.9-6.4-1
		c-3.2,2.7-7.1,5.6-9.4,9.3l-0.2,2.6c-1.2-1.2-1.8,0.8-2.9,1.1c-1.4,0.8-3.3,0.8-4.8,0c-1.4-0.9-1.2-2.5-1.9-3.8
		c-1.8,1.7-3.2,3.9-4.8,5.9c-0.1,0.5,0.1,1.1-0.2,1.4c-0.7-1.5-1.9,0.4-3,0.6c-2.7,1.7-5.9-3.6-6.8,1.3c-0.9,1.4-2,4.2-4.3,3.8
		c-1.7,0.2-2.4-1.4-3.3-2.3c-4,4.5-3.2,11.3-5.6,16.6c-0.9,0.7-2,1.1-3.2,1.3c-1,1.7-2.3,3.6-4,4c-2.5,0.6-4.6-0.9-6.5-2.1
		c-0.6,1.3-0.4,3.2-0.5,4.6c1.9,0.1,3.9,0.7,4.9,2.4c0.7,1.4-0.4,2.7-1.3,3.8c-1.2,1.1-2.9,0.8-4,1.7c1.1,1.5,1.8,3.3,2.4,4.9
		c-0.6,1.1-1.1,2.7-2.6,3.2l-2.4-0.5l-0.2,0.8c2,7.5,5.3,18.1-0.2,25c-1.9,0.6-2.5,2.1-3.9,3.3c1.3,1.4,3.9,2.7,4.2,5.1
		c0.4,2.6-2.3,4-3.3,5.6c1.7,0.5,3.6,0.2,5.2,0.7c1.4-1.1,3.2-1.9,4.9-1.3c0.4,2.4-0.8,5-2.9,6.3c0.1,2.4,2.6,3.7,4.2,5.1
		c1.3-0.1,2.7-0.8,4.2-1.2c-0.6,0.6-1.5,1.4-2.3,1.9c3.2,3.4,12.4,4,10.1,10.9l-1.8,1.3c0.8-0.7,1.4-2.5,0.7-3.7
		c-2.7-3.7-7.3-5-10.9-7.1c-0.9-0.1-1.5,0.5-2.1,0.9c-0.1,0.9,1.4,1.2,1.5,2.1c0.1,1.1-0.6,1.9-0.6,2.7c1.2,0.4,2,1.3,3.3,1.2
		c1.2-0.9,1.9-2.3,3.6-2.3c1.1,1.9,0.2,4.5,0.2,6.4l1.1,0.2c-0.6,0.7,0.5,1.1,0.8,1.3c3.3,1.5,8.2,3.1,11.5,0.8l-0.5,1.3
		c2.6,0.9,7.2-0.1,7.6,3.8c0.4,1.9-1.1,3-2,4.3c-1.3,1.1-3.3,1.2-4.2,2.7c0.7,1.5-0.4,2.9-1.1,4c-1.5,2.3-4.3,1.8-5.8,3.7
		c0.7,0.6,1.9,0.4,2.6,0.8c-3.4,0.7,0.4,3.3-1.1,5.1c-2,1.9-5.9,1.4-8.3,0.5c-1.3-0.5-0.5-2-0.2-2.9c0.5-0.7,1.1-1.1,2-0.8
		c0.7,0.9-0.6,2.5,1.2,2.8h2.5c0.1-1.8-1.3-3.1-2.3-4.5c-1.5-0.5-3-1.1-4.4-1.7c-0.1-1.1,1.1-0.2,1.5-0.7c2.8,1.2,6.2,1.1,8.9-0.5
		c1.3-0.8,2.9-2.1,2.6-3.8c-1.1-2.9-4.4-3.8-7.3-4.2c-5.2,5.8-9,12.8-13.7,18.5l-2,0.5c-0.2-2.7,1.3-5,2.4-7.2l1.2,1.1
		c3.3-4.3,6.7-8.7,9.5-13.1c-1.7-0.8-3.9-0.5-5.7-0.4c-3.9,3.6-6.5,8.1-8.4,12.6c-0.6,0.6-1.2,1.2-2.1,1.2c0.1-6.2,5.4-9.9,9-14.6
		c0.6-1.3,1.3-3,0.5-4.4c-1.4,2.3-2.1,5.2-5.2,5.9c-2.3,0.6-4.4-0.1-6.1-1.5c-1.5-1.9-3.4-3.9-2.5-6.5c1.7,2.7,4.5,6.1,7.8,7
		c1.7-0.2,2-2,2.6-3.2c0.4-1.9,0.7-3.9-0.8-5.4c-2.7-1.8-5.7-2.7-8.9-3.4c4-2.1,8.3,0.8,12.1,2c0.8-0.8,0.2-1.8,0.2-2.7
		c-1.7-2-3.8-3.2-6.2-3.7c0.6-0.5,1.5-0.2,1.9-1.2c0.4-1.1-0.6-1.9-1.3-2.4c-3.8,1.4-7,4.9-10.5,7c-1.7,3.6-0.4,9-4.5,10.8
		c-3.8,1.2-4.4-4.5-8-2.7h-0.5c-0.2-0.7,0.7-1.2,0.9-1.9c-2.3-4.5-6.1-7.4-8.8-11.8c-0.5-1.2-1.4-2.3-0.9-3.6
		c0.6-1.1,1.8-0.8,2.6-1.4c-1.3-3.4-3.4-6.7-4.6-10.1c-2-6.2-5.5-12.1-4.9-19c1.7-1.5,3.7,0.4,5.2,1.3c0.8,0.8,1.9,1.1,2.7,2
		c-1.8-0.1-4.2-4.6-5.8-1.3c-0.5,2,0.8,3.3,2.6,3.6c0.4,0,0.8-0.1,1.1-0.5l-0.7-1.4c0.8-0.4,2.3,0,3.2,0.7c0.9,0.1,0.8,1.3,0.7,2
		c-2,0.7-4,0-5.7-0.6l-0.5,0.5c0.8,3.9,2.1,7.7,3.8,11.3l1.2,0.8c3.1,0.6,5.9,1.2,9.2,0.7c0.7-0.7,1.4-1.3,1.1-2.5
		c-0.8-0.8-2-1.2-3.1-1.5c1.9-0.7,4.3,1.1,6.4,1.5c-0.6,0.6-0.6,2.5-2,3.1c-4,0.7-8.2-0.1-12-1.1c0.1,1.8,1.1,3.6,2,5.1
		c1.2,2,2.1,4.2,3.7,5.9c3.6-2.6,5.9-6.1,9.6-8.6c3.3-3.1,7.5-4.6,10-8.6c0.2-1.5-0.2-3.2-1.3-4.3c-0.9-1.1-2.6-1.9-3.4-3.1
		c0.8,0,1.9-0.2,2.1-1.2c-0.2-0.6-0.6-0.9-1.1-1.1c0-0.2,1.4,0,1.2-0.9c-0.5-1.5-0.4-3.7-2.4-4.2c-8.8-0.9-17.8-0.5-26.9-0.9
		l-0.9-0.7l0.5-0.5c8.8-0.4,17.1,0.7,25.9,0.1c0.9-0.4,2.3-0.9,2.6-2c-0.9-0.2-2.1,0.6-3.3,0.5c-1.9,0.2-3.4-0.2-4.8-1.3
		c-3-1.1-0.4-5.8-4.4-5.1l-15-0.1c-0.5-0.4-0.9-0.5-1.4-0.8c1.8-1.1,3.9-2.3,6.2-1.7c-0.2,0.5-0.2,1,0.2,1.2c4.5,0.1,8,0.4,12.2,0.2
		c1.3-1.4,1.7-3.4,3.2-4.5c-0.5,1.3-0.9,2.6-0.7,4.2l0.7,0.6c2.5,0,5.7,0.5,8.2,0.1c0.1-2.8-1.4-5.5-2.8-7.8
		c3.2,1.4,4.5,5.5,5.5,8.7c0.8,0.4,1.5,0.8,2.6,0.7c0.6-4.8-1.7-9-2.6-13.4c1.5-0.4,4,1.3,5.1-0.9c0.2-1.1-1.1-1.1-1.5-1.5
		c-4.3-1.2-8.4-3.1-13-3.3c-0.5,1.3-1.3,2.7-2.7,3.3c-3.8,0-6.9-1.5-10-3.1c-0.5,0.9,0.8,1.3,1.4,1.8c3,1.7,6.5,2.7,8.4,5.8
		c0.2,1.3-1.4,1.9-2.1,2.6c-1.8,1-3.7-0.8-5.1-0.2c0.2,0.7,0.9,1.3,0.7,2.1c-1.1,1.2-2.9,1.3-4.2,0.7c-2.6-0.8-4.6-3.8-6.9-4.8
		l-0.2,0.4c-2.1-0.6-1.8-3.3-1.2-4.9c0.4-1.2,0.8-2.5,1.9-3.3c5.8,2.1-1.8,11.6,6.4,11.4c0.7-0.4,1.9-0.4,2.1-1.4
		c-0.1-0.8-0.8-1.4-1.4-2c2.3,0.7,5.2,2.7,7.8,1c0.9-0.7,0.7-2,0.1-2.9c-3.6-3.3-8.8-3.6-11.4-8c4.5-0.4,9.3,5.7,13.3,0.8l-0.4-0.6
		c-4.9-1.7-10-2.9-15.1-3.9l-1.2-1.2c1.9-0.9,4.9-0.6,7-0.2v1.1l9.6,2.7c0.8-0.6,0.2-1.5-0.2-2.1c-3-3.4-7.7-2.7-11.6-3.9
		c-0.2-0.6-1.1-0.5-0.8-1.2c3.7-0.1,7.1,1.3,10.9,1.4c1.4-0.1,2.9-1.2,3.4-2.6c0.1-0.9,0.2-2.3-0.8-2.8c-3.8,0.1-7.7,0-11.2-0.4
		c-0.6-0.6-1.8-0.7-1.8-1.5c1.1-0.6,2.4-1.1,3.8-1.1c-0.4,1.5,1.4,1.4,2.4,1.4c4-0.1,8.1,0.2,10,4.2c0.4,1.2,0,2.5-0.5,3.4
		c-1.1,0.8-2.4,0.6-3.5,1.3c1.4,1.5,2.4,3.8,3.9,5.2c4.5,1.2,8.9,2.6,13.2,4.3c0.8-0.9-0.5-1.7-0.6-2.6c-4.5-3,0.8-7.1-0.2-11.4
		c-1.8-0.6-3.1,1.1-4.5,2l-0.5,1.5c-2.8-2.6-0.4-6.5,0.8-9.4c0.9-2.1,3.1-4,5.1-5.2c2,1.1,1.8,3.6,1.5,5.8c1,0.6,1.9-0.4,2.7-0.8
		c1.3-1.2,1.5-2.9,1.3-4.4c-2.3-1.7-5.1-1.3-7.5-2.6c-0.5-0.4-0.7-0.8-0.8-1.4c0.8-0.2,2-0.1,2.7-0.1c0.8,1.7,3.4,1.3,5,2.4
		c3,1.7,1.5,6.5,5.1,7c0.7-1.1,0.9-2.3,1.1-3.6c-8.3-7-17.2-12.4-25.9-18.5c-0.1-0.7-0.9-1.1-0.8-1.9c1.8,0.9,4.3,0.5,6.1,1.7
		c-2.3,1.1,0.4,2.5,1.2,3.2c6.7,4.5,13.6,9,19.5,14.9c1.5-2.5,1.5-5.9,1.8-9.2c-0.1-0.6,0-1.3-0.7-1.7c-2.6-0.4-3.4,3.6-6.1,2.3
		c-1.5-0.6-1.9-2.3-2.4-3.6c-0.1-1.2,0.1-2.3,0.9-3c2-1.2,4.4,0.1,6.2,1.3c5.2,4.4,2.7,12.1,1.5,17.6l0.5,0.5
		c3.4-4.8,1.8-11.5,5.2-16.3c0.5-1.7,2.1-2.4,1.9-4.3c1.4-1.4,3.1-3.6,2.7-5.8c-7-2.7-15.8-1.1-22.7-4.2c-1.3-1.2-1.4-3-1.3-4.5
		c3.6-4.5,8.4-8.9,12.8-12.7c1.4-0.6,2,0.8,2.1,1.9c-0.6,4.3,2.4,9.7-1.8,12.6c0.2-0.9,1.1-1.7,1.2-2.6c-1.4-0.6-2.4,0.8-3.7,1.4
		c-0.7-1.5,0.6-2.9,1.8-3.4c0.8-0.7,2.3-0.7,2.4-2c-0.4-1.8,0.8-3.7-0.5-5.1l-1.9,0.2c-4.2,3.9-8,7.6-11.2,11.9
		c1.3,1.2,2.6-0.5,4,0.2l-0.6,0.8l0.8,0.7c6.9,2.3,19.6-1.9,20.1,8.1l-3.2,6.1c0.1,0.7,1,1.3,1.7,1.3c3.1,0.1,4.2-3.6,5.6-5.6
		c-0.4-1.3-0.6-2.5-0.8-3.8c0.5,0.7,0.5,2.1,1.8,2.1c1.2-2.6,3.8-5.1,3.2-8.2l-2.7-5l-5.5,0.4c-0.7,1.8,0.5,3.8,0.6,5.8
		c0.6,0.8,1.7,0.9,2.4,0.5c0.7-0.4,0.7-1.1,0.6-1.7c0.7,0.9,0.6,2.5,0.5,3.6l-1.2,1.3c-3.6-1.5-2.9-5.9-3.6-9.3
		c-1.9-0.8-4.3-0.7-6.3-1.4c0-0.8-1.8-2.3-0.1-2.7c1.2-0.1,3.3-0.5,3.6,1c2.3,1.2,4.9,0.2,7.3,0l0.4-0.5l-6.2-13.1
		c0-0.6,0-1.3,0.6-1.4c1.5,1.5,3.3,3,4.3,5.1c-0.4,0.2-0.7-0.1-0.9,0.4c0.7,3.1,2.7,5.7,3.7,8.8c0.6,1.4,2.3,0.1,3,1.1
		c1.3,1.1,2.3,2.5,2.7,4c0.4,1.8-0.6,3.1-0.8,4.6c1,2,1.4,4.3,2.9,6.2c2.1-1.9,3.9-4.4,5.3-6.9c-0.7-1.5,0.4-3.9-0.8-5.2
		c-1.5,0.4-3,2-4.8,1c-1.2-1.2-2-3-1.2-4.8c0.4-1.3,1.2-2.5,2.5-2.9c2.3,0,4,1.3,5.3,3.1c1.5,2.3,1.1,5.5,0.9,8.3
		c0.8,1.2,2.6,0.7,3.7,0.4c0.5,0,0.7-0.4,1.1-0.7c-2.8-8.7-6.3-17.1-8.4-26c-1.3-0.9-0.1-2.3,0.1-3.2c1.7,1.4,3.4,3.1,4,5.1
		c-0.6,0.2-1.7-0.4-2,0.5c2.5,7.5,4.6,15.1,7.5,22.3c2.4-0.4,3.9-3.2,5.5-4.8c0.8-1.9,3.6-3.9,1.7-6.1c-1.9,0.7-4,2.1-6.2,1.1
		c-1.3-1.4-0.6-3.7-0.2-5.2c0.9-1.2,2.4-2.6,3.9-1.7c1.4,0.4,2.1,2.6,3.7,1.9l4-3.2c0.2-1.2-1-1.4-1.8-1.7c-1.8-0.5-3.3,1.4-4.9,0
		c-1.1-1.1-0.7-3.3-0.2-4.6c0.6-1,1.4-2.3,2.7-2.5c2,0.1,3.8,1.9,4.6,3.7c0.9,2.4,0.4,5.5-0.7,7.7l-3.6,3.4
		c1.1,4.3-1.4,7.7-3.3,10.9c2.1-1.2,4.5-3.1,6.7-5c-0.5-2.4-1.5-5.5-0.1-7.8c0.6-0.9,1.8-2.5,3.1-1.5c1.9,1.1,2.1,3.2,2.5,5.1
		c0.2,1.8-0.8,3.1-2.1,4.3c-0.2,1.2,1.2,1.1,1.9,1.3c1.7,0.2,1.8-1.4,2-2.5c1.1-6.8,2.6-13.3,3-20.3l1.4-2
		C175.2,147.7,171.6,155.2,171.5,163.3 M169.4,140.5c0.5,0.9,0,1.9-0.7,2.6c-0.9-0.2-1.9-0.6-2.5-1.3l0.7-2.1
		C167.8,139.5,168.5,140.1,169.4,140.5 M181.8,144.5c-2.1,0.1-0.2,2.1,0,3c1.7,2.3,2.9,4.6,4.4,7c4.9-2,9.5-4.8,14.1-7.4
		c-0.5-1.1-2-0.5-2.8-1.1c1.9-0.7,4.6-0.4,6.8-0.8c-0.2,1.4-1.8,1.7-2.7,2.7c-4.9,2.6-10,4.9-14.6,8.2c0.4,1.8,0,3.7-0.7,5.2
		c-1.4,1.4-3.7,1.8-5.7,1.4c-0.9-0.4-1.3-1.8-0.7-2.6c1.1-1.7,2.7-3.4,4.3-4.8c-2.1-4.3-5.3-8.2-6.4-13
		C178,137.6,180.9,143.7,181.8,144.5 M187.9,142.6c0.1,0.9,0.1,2-0.9,2.5c-1.1-0.2-1.8-1.1-2.5-1.9c0-0.9,0.6-1.5,1.2-2.3
		C186.6,140.9,187.2,142.1,187.9,142.6 M150.1,142.8c0.2,0.8-0.2,1.7-0.7,2.3c-1-0.2-2.3-0.4-2.7-1.3l0.6-2
		C148.4,141.8,149.5,142.1,150.1,142.8 M137,145c0.4,2.6-2.5,3.1-4,4.4l2-2.1c-1.5-0.9-3.3,0.4-5,0.7c-0.5-1.2,0.1-2.5,1.3-2.8
		C133,144.4,135.7,143.2,137,145 M169,149c0.8,0.5,0.6-0.6,1.2-0.7c0.2,1.4-0.7,2.7-1.8,3.6c-0.8,0.1-1.2-0.8-1.3-1.4
		c-0.1-2.5,1.5-4.3,3-6.2C169.5,145.7,167.7,147.5,169,149 M160.9,146.4c-1.1,0.4-2.3,1.1-3.3,0.4c-0.6-0.7,0.4-1.2,0.8-1.5
		C159.5,145,160.4,145.6,160.9,146.4 M189.5,148.1c0,0.7-0.2,1.5-1,1.9c-1.2-0.1-2.1-0.9-3-1.9c0.1-0.8,0.4-1.5,1.1-2.1
		C187.8,146.2,189,146.9,189.5,148.1 M212.6,150.1c-1.3,1.8-4,1.8-6.2,1.7l-1.1-0.2c1.1-0.5,2.6-0.1,3.7-0.8
		c-0.7-1.3-2.1-1.4-3.3-1.9c-0.1-0.7,1.1-0.6,1.4-0.9C209.3,147.8,211.1,148.7,212.6,150.1 M149.3,153c0,0.8,0.6,1.8,0.1,2.7
		c-1,0.4-2.3-0.6-2.3-1.7l-0.5-6.1C148,149.3,146.3,154,149.3,153 M118.1,153.9c0.1,0.8-0.8,1.1-1.5,1.1c-0.6-0.5-1.8,0.2-1.8-1
		c0.1-0.6-0.4-1.7,0.4-1.9C116.4,152.5,118.7,151.6,118.1,153.9 M121.7,157.3c0.6-0.2,1.4-0.2,1.7-1c0.7,0.6,0.4,2.1,0.2,3.1
		c-0.4,0.6-1.4,1-2,0.5c-2.8-1.9-0.9-4.9-1.7-7.6C120.2,153.9,120.4,156.3,121.7,157.3 M135.5,156.4c1-0.1,0.6-1.3,1.2-1.7
		c0.4,1.4,0.2,3.3-0.9,4.3c-1,0.2-1.7-0.8-2-1.5c-0.2-1.4-0.7-3-0.1-4.4C133.8,154.3,134.2,155.7,135.5,156.4 M155.7,155.8
		c-0.4,1.1-1.8,0.7-2.9,0.8c-0.2-0.2-0.6-0.5-0.5-0.8c0.6-0.9,1.9-0.9,2.6-0.5C155.2,155.4,155.5,155.7,155.7,155.8 M211.6,156.5
		c0.4,0.1,0.1,0.4,0.2,0.6c-0.9-0.1-2.1-0.2-2.9-1.2C209.3,154.6,211.6,155.2,211.6,156.5 M218.2,161.7c0.7,0.7,1.5-0.2,2.3-0.6
		c0,1.3-1.8,1.9-2.7,2.6c-0.9,0.5-2,0-2-1.2c0.5-3.3,4-5.2,6.5-6.8C221.3,157.2,216.9,158.8,218.2,161.7 M167,159
		c-0.5,1.3-1.3,2.1-2.6,2.6c-0.6-1.5-1.8-3.1-1.1-4.9C164.7,155.3,166.5,157.7,167,159 M185.8,159.2c0.1,0.6-0.5,1.1-1.1,1.1
		c-1.1-0.2-2.7,0.6-3.2-0.7C182.2,158.2,185.8,155.4,185.8,159.2 M141.3,162.9c-0.4,0.7-1.5,1.3-2.6,1.5c-0.6,0-1.2,0-1.5-0.6
		c0.1-0.7,0.6-1.3,1.3-1.7C139.5,162,140.5,162.5,141.3,162.9 M134.8,166.7c0,0.9-0.5,1.7-0.9,2.3c-0.8-0.7-1.7-2.1-1.5-3.3
		C133.2,165.7,134.3,165.8,134.8,166.7 M144.9,166.9c-0.1,1.1-0.4,2.1-1.3,2.6c-0.2-1.1-1.4-2.7-0.1-3.6
		C144.2,165.9,144.6,166.1,144.9,166.9 M229.7,167.6c-0.2,2.7-2.6,5.8-5.5,7c-0.6-0.1-1.5,0.4-1.7-0.4l5.7-7.7
		C229.1,166.4,228.8,167.7,229.7,167.6 M162.6,174.2c1.1,0.4,1.3-1.1,1.8-1.4c0,1.4-0.8,3.4-2.4,4c-0.9,0-1.4-1.1-1.5-1.8
		c0-3.2,0.8-5.9,2.4-8.4C162.1,168.9,160.6,172,162.6,174.2 M185.2,168.6c-0.4,0.7-1.7,0.6-2.5,0.8c-0.4-0.6-0.9-1.1-0.7-1.9
		C183.1,167.6,184.2,168.2,185.2,168.6 M95.9,170.9c-0.1,1.9-1.2,3.6-2.4,5.1c0-1.2,1.1-3.2,1.3-5l-0.5-0.2c-1.2,0.9-3,2.3-3.8,3.7
		c-0.2-0.9-0.8-2-0.1-3C91.5,169.9,97.5,164.4,95.9,170.9 M206.3,173.7c-1.2,1.1-1.4,4-3.7,2.7l-0.5-0.4c0-1.9-1.1-3.6-0.7-5.5
		C203.4,170.9,204.8,172.4,206.3,173.7 M153.3,171.4c0.1,0.5-0.5,1-0.9,1.4l-0.2-0.4C152.4,172.1,152.8,171.5,153.3,171.4
		 M151.2,174.5c-0.7,1.4-2.3,2.6-3.6,3.3c-0.9,0.4-1.9-0.2-2.7-0.5c-1.1-0.9-1.2-2.4-0.8-3.6c1.8,0.7,4.8,0.6,6.7-0.2L151.2,174.5z
		 M136.3,178.9c-0.7,1.1-2,1.7-3.4,1.5c-0.7,0.2-1.2-0.1-1.7-0.5l2.6-5.7C135,175.4,135.6,177.2,136.3,178.9 M212.5,179.3
		c-2.1-0.5-4.2-1.2-6.2-1.9c-0.4-0.8,0.5-1.7,1.2-2.3C209.2,176,211.4,177.9,212.5,179.3 M186.6,178l2.4-0.7l1.8,2.3
		c-0.4,0.7-1.2,1.1-2,1.2c-1.1-0.6-2.5-2.3-3.9-1.1c-0.9,0.1-1.5-0.9-2-1.5c-0.1-0.9,0.9-1.3,1.5-1.7
		C185.4,176.4,185.9,177.7,186.6,178 M100.1,180.9c0.7-0.6-0.1-1.4,0.1-2c1.2,1,1.4,2.7,1.2,4.2c-0.6,0.6-1.5,0.1-2.1-0.1
		c-1.3-1.5-2-3.3-2.7-5C97.7,178.9,98,181.8,100.1,180.9 M115.6,180.2c1.1,0.2,0.9-1.1,1.1-1.5c0.4,1.1,0.7,3.1-0.2,3.9
		c-1.4,0.5-2-1.1-2.6-1.9l-0.2-2.5C113.9,179,114.8,179.9,115.6,180.2 M251.5,182.4v1.1c-2.7,0.6-5.6-1.1-7.3-3.3
		c1.1,0.1,2.4,1.4,3.6,1.4c-0.1-1.2-1.2-2-1.8-3c0.5-0.7,1.9-0.6,2.6-0.1L251.5,182.4z M198,181.1c0.2,0.9-0.9,1.7-1.8,1.8
		c-1.1-0.1-1.4-1.4-1.9-2.1c-0.2-1.2,1.1-1.2,1.5-1.8C197.3,178.9,197.3,180.5,198,181.1 M248.5,187.4c1.3,1.1,2.9,3.8,5,2.3
		c0.6-0.2,0.5-0.8,0.5-1.2c-0.2-0.4-0.7-0.5-0.6-0.9c1.2-0.1,2.4,0.2,3.1,0.9c0.4,0.2,0.1,0.6,0.2,0.9c-1.1,1.3-2.9,0.6-4,1.4
		l11.3,11.9v0.5l-1.9-0.2c-5.8-5.6-11.9-12.2-18.7-17.4c-2.6,0.2-5.6,0.2-7.3,2.6v0.9l2.3,0.1c-1.5,0.5-3.2,1.4-5,0.7
		c-0.4-1.4,1-2.6,2.1-3.3c2.1-0.9,4.8-0.9,6.9-1.7c-0.5-1.5-2.7-1.7-3.1-3.2c0.8-0.1,1.9-0.2,2.6,0.2L248.5,187.4z M85.2,187.5
		c0.8-0.4,0.2-1.2,0.4-1.8c0.9,0.8,1.5,2.1,1.4,3.6c-0.4,0.9-1.7,0.6-2.1,0.2c-2-1.4-2.5-3.7-3.7-5.6
		C82.6,185,83.1,188.1,85.2,187.5 M108.5,184.4c-0.6,0.9-1.5,2.1-2.7,2c-0.5-0.5-0.2-1.2,0-1.5C106.5,184.1,107.7,184,108.5,184.4
		 M93.1,192c0,0.8-1.1,1.2-1.7,1.7c-0.8,0-1.3-1-1.7-1.5C90.2,191,92.7,189.4,93.1,192 M80.5,193.5c0.7-0.4,1.4-1.3,2.4-0.7
		c0.6,0.5,1.1,1.5,0.2,2.1c-0.8,0.6-1.8,1.2-3,1.4c-0.6-0.7-1.1-2.5-2.4-1.7c-0.8,0.6-1.7,1.4-2.7,1.1c-1.5-1.8,0.2-2.9,1.7-3.6
		C78.7,191.3,78.4,194.9,80.5,193.5 M92.1,198.8c0.6,1.8,0.1,3.9-0.1,5.7c-0.6-1.4,0.7-4.3-1.2-4.9c-1.2,1.2-1.8,2.6-2.4,4
		c-1.3-0.8-1.2-2.8-0.5-4C88.3,198.1,91.9,195,92.1,198.8 M230,198.6l-0.1,1.1c-0.8-0.2-0.9-1.2-1.3-1.9
		C229.1,196.9,230.2,197.8,230,198.6 M99.2,200.1c0.2,1.4-0.1,3.4-2,3.4l-0.4-0.1C97.2,202.2,97.8,200.6,99.2,200.1 M109.2,202.3
		c0.5,1.3-1.2,2.6-2.3,3.1c-1.1,0.5-2.7,0.6-3.7-0.1c1.1-1.3,3.9-2.3,4-4.5C108.6,200.4,108.5,201.8,109.2,202.3 M240,205.8
		c-0.7,1.2-1.3,3-2.7,3.3c-0.7-1.4-2.6-2.5-2.3-4.2c0.6-1.3,2.1-1.2,3-0.7C238.7,204.6,239.4,205.1,240,205.8 M226.4,206.4
		c0.5,0.9,0.5,2.1,0.4,3.1c-1.2,0.4-3.4,0.2-2.7-1.7c0-0.7,0-1.4,0.6-1.8C225.1,206.4,225.9,206.1,226.4,206.4 M234.1,211
		c-0.5-0.2-0.7-0.9-0.5-1.5C234.5,209.5,234,210.5,234.1,211 M249.7,213.6c-1.9,0.7-3.9,1.7-5.8,1.8c-1.2-1.4-1.7-3.1-2.1-4.8
		c2-0.4,4,0.6,5.9,1.1C248.4,212.1,249.7,212.4,249.7,213.6 M103.3,212.9c0.4,1.2-1.3,2.3-2.1,2.7h-0.7
		C100.5,214.3,101.8,212.9,103.3,212.9 M269,214.4c-2.5,0.4-5.5,0-8.3,0.2c-0.6,0.6-0.1,1.4,0.1,2c-1.2,0.4-2.7,0.1-3.6-0.8
		C259.6,211.3,265.2,214.2,269,214.4 M231.8,215c0.2,1.1,0.2,3.1-1.2,3c-2.1,0.5-1.5-1.9-1.4-3C229.9,213.9,230.8,215,231.8,215
		 M251,217.4c-0.4,0.9-0.4,2.3-1.4,2.6c-1.7,0-2.6-1.5-3.9-2.3V217C247.3,216.9,251.6,213.1,251,217.4 M265.4,217.5
		c0.1,0.9-0.2,1.9-0.7,2.6c-0.8,0.5-1.8-0.2-2.6,0c-0.8,0.9-0.9,4-3.1,2.4c-0.4-0.1-0.5-0.4-0.7-0.5c0.4-0.9,0.2-2.6,1.7-2.5
		C263.4,221.1,261.8,214.5,265.4,217.5 M269.3,221.6c0.1,1.8,1.4,4.8-0.5,5.7c-3-0.1-4.3-3.1-5-5.4c1.1-0.1,1.9,1.5,2.5,2.5
		c0.1,0.1,0.5,0.5,0.6,0.1c0.6-1.4-0.5-2.7-0.1-4C267.9,220.2,268.8,220.8,269.3,221.6 M92,223.2c0.2,0.8-0.5,1.4-1.1,1.7
		c-2.4-0.2-4.2-1.7-6.2-2.7c1.3-0.1,3.1,2.4,4.8,0.8c0.1-1-1.2-1.3-0.8-2C89.8,221.4,91.5,221.6,92,223.2 M67.4,226.8
		c-0.7,0-1.7-1.2-2.1-1.9l1.1-2.6C66.9,223.4,67.4,225.1,67.4,226.8 M244,226c1.2,1.7,2.7,3.4,3.4,5.5c-3.1,0.4-6.1,1.2-9.2,0.8
		c2.7,2.4,7.6,0.9,11.1,1.2l1.8,2c-1.5-0.5-3.4-1.1-5.3-0.6c-3.1,0.8,1.2,9.2-3.7,5.3c-3.2-3.4-6.7-7.1-6.5-11.8
		C236.6,224.9,241.2,225.2,244,226 M259.8,230c-1.8,0.5-4,0.6-5.9,0.9c0-1.8,1.8-3.8,3.6-4.5C259.5,226.2,259.2,228.7,259.8,230
		 M271.8,237.7c0.1,2-0.1,3.9-1.1,5.5c-2.4-1.1-4-3.6-3.8-6.4c1.2,0.8,0.9,2.5,2,3.4c1.3-0.8,0.5-3.1,0.9-4.5
		C270.9,235.9,271.3,237,271.8,237.7 M249,237.3c0.1,0.8-0.2,1.5-0.8,2c-0.9-0.5-0.6-1.8-0.5-2.7C248.3,235.8,248.6,237,249,237.3
		 M91.3,237.2c-0.2,2.1-2.8,3.6-4.8,4.2c-1.4,0.2-2.3-0.5-2.7-1.5c-0.2-0.8-0.1-1.8-0.1-2.6C85.9,237,88.8,237,91.3,237.2 M97.9,241
		c0,3.4-0.4,6.9-2.9,9c-0.7-1.8-2.5-3.2-4.3-4c1.5-0.9,3.9-2.4,4.3-4.5c0.4-1.3-0.2-3.1,0.6-4C98.2,237,97.7,239.5,97.9,241
		 M75.8,240.5c0,1.2-1.1,1.8-2.1,1.9c-4,0.7-7.1-1.1-10.8-1.2c3.2-0.4,6.8,1.2,9.9,0.2c0.2-0.4,0.5-0.8,0.4-1.4l-1.1-0.8
		C72.6,238.5,75.3,239,75.8,240.5 M242.2,246.4c-1.5-0.7-3.2-3.2-5.5-2.1c-0.5,0.4-1.1,0.8-0.6,1.4l0.9,0.9c-1.2-0.2-2.8-1.5-3.2-3
		c-0.1-0.6,0.6-0.9,0.9-1.3C238.1,242,240.2,244.4,242.2,246.4 M270.3,245.9c0.5,0.2,0.9,0.7,1.2,1.1c-6.9,1.1-13.8-0.8-20.8-0.6
		c-2.1-0.2-3.3,1.7-4.4,3.2c-0.2,0.6-0.7,1.3-0.1,1.9c0.4,0.4,0.9,0.6,1.3,0.9c-0.8,0-2-0.7-2.1,0.6c-0.5,2.5,2.9,1.9,4.4,2.6
		c5.9,1.5,12.1,2.5,18.1,3.9c0.5,0.4,0.9,0.6,1.2,1.2c-1.5,1-3.7,1.2-5.5,0.8c0.2-0.4,0.2-0.7,0.6-0.9c-2.3-1.9-5.8-1.5-8.7-2.6
		c-3.2-1.1-6.8-1.3-9.9-2.8c-1,1.7-0.1,4.2,0.8,5.8c2,0.5,4.8-1.5,5.5,1.2c-2.5,0.9-6.1,0.7-8-1.2c-1.2-2.5,0.1-6.7-2.7-7.8
		c-2.6,1.2-2.1,4.5-2.3,6.8c0.1,3,0.6,5.8,1.8,8.4c1.4-1.7,2.1-5.5,5.3-5c1.3,0.4,2.4,1.7,3,3c0.2,1.1,0.8,2.6,0,3.7
		c-1.8,2.5-5.7-0.9-6.1,2.9c-0.4,2.4-0.8,4.8-1.2,7.1l0.4,0.5c1.3-1.9,3.9-2.8,4.2-5c0.8-0.9,1.4-2.1,2.7-2.4c0.8,1.1,1.8,2.4,1,3.8
		c-1.3,3.9-5.8,5.7-8.4,8.9c-0.5,0.9,0.8,1.3,1.3,1.9h0.7c3.3-4.4,7.5-6.9,12.5-7.3c1.5-0.9,0.9-3.2,0.7-4.5
		c-2.3-1.4-4.5-2.9-6.2-5.1c1.7,0.7,2.8,2.5,4.5,3l0.5-0.4c-0.9-2.3-3.1-4.8-2-7.3c2.1-1.8,5.3-0.7,7.3,0.7c1.8,0.7,2.9,4.6,4.9,2.1
		c1,0.2,1.4,0.9,1.8,1.8c-0.9,0.7-1.7,2.7-3.2,2c-0.8-0.6-1.1-1.9-0.6-2.7c-1.3-1.5-2.9-3.2-4.8-3.6c-1.5-0.2-2.8,0.4-3.6,1.4
		c0,2.9,1.7,5.1,3.2,7.1c2.3,0.2,4.8-1.2,6.3,0.7c-1.3,0.9-3.7,1.2-5.6,0.8c-0.7,1.2,0.4,2.8-0.4,4.2c-0.5,3.6-4.8,1.9-6.9,3.4
		c-2.4,1.2-4.4,3.1-5.9,5.1c2.6,3.1,7.6,3.1,9,7.1l-0.2,0.4c-2-0.7-4.3-0.8-5.9-2.1c0.5-2.4-2.4-2.5-3.6-3.8h-0.6
		c-2.5,3.4-4.3,7.1-5.1,11.3c-1.3-0.5-2.3-2.8-3.9-1.4c-4.4,1.8,1.3,8.6-4.4,8.2c-2.1,1.5-3.8,3.8-4.5,6.2c1.1,0.9,2.7,0.1,3.8,0.2
		c0.5-0.5,0.6-1.3,1.2-1.7c0.6,0.2,1.1,1.5,0.7,2.5c-2.1,4.3-6.9,8.1-11.6,8.4c-2.1-2.5,1.1-4.5,1.2-6.7c-1.3-0.4-2.5,0.5-3.4,1.4
		c-1.5,1.8-1.4,4.2-2.5,6.2c-0.8-1.3-2.6-1.4-3.8-0.7c-0.8,0.7-2.1,1.8-1.5,2.8c1.2,0.4,1.4,1.5,1.5,2.4v0.5
		c-1.8-0.4-2.6-2.4-3.2-3.8c0.1-1.5,0.5-3.1,1.7-4c0.9-0.8,2.6-1.4,3.7-0.6c0.4,0.4,0.7,0.6,1.1,0.4c0.8-2.6,0.9-5.7,3.8-7
		c2.3-0.8,6.1,0.2,6.3-3.3l2.3-4.3c-0.7-1.1-2.6-1.9-2.1-3.6c1.3-1.1,3.3-1.4,4.9-0.8c0.6,0.4,1.3,1.1,1.9,1c0-1.9-0.2-4.2,1.2-5.7
		c0.8-0.7,2.1-1.2,3.1-0.5c0.6,0.5,1.9,1.1,2.1-0.2c0.5-3.2,2.1-5.9,3.6-8.8c-0.5-1-1.7-1.3-2.6-1.5c-1.8,1.2-2.7,3.4-4.8,4.2
		l-0.7-3.1c0.9-0.9,2-2.1,2-3.6c-2.4-1.9-4.8-3.4-7.4-4.8c-0.7,1.4-0.9,3.2-1.1,5c-1.3-0.4-3-1.4-4.6-0.6c-1.8,2-2.9,4.3-3.9,6.7
		c2.7-0.4,5-3,7.5-4.3c2.1,2.8-0.8,5.8-1.3,8.7c-0.7,2.4,1.1,5.5-0.9,7.1c-2.1-0.5-3.7-3-6.1-1.9c-2.7,1.3-1.7,4.5-1.8,7.1
		c-0.9-1-2-1.7-3.4-1.7l-0.5,0.7c0.2,4.4,0.2,10.3-4.4,12.6c-1.5,0.5-3.6,0.4-5-0.5c-1.8-1.1-1.9-3.2-2.1-5.1
		c1.1-4.3,5-8.6,9.3-10.1c1.1-1.4-0.4-3.4,0.1-5.1c0.5-1.5,2.9-2.6,1.3-4.4c-0.7-1.3-2.5-1.3-3.4-0.6c-5.8,5.5-4.9,14.3-11.5,19.4
		c0.2,1.9-2.1,0.5-3,1.3c-1.3,0.8-3.1,1.5-3.6,3.2c0.9,0.7,2.1-0.6,3.4-0.5c2-0.7,4.3-0.2,6.1,0.7c3.3,2.9,3.4,7.6,5.5,11.4
		c0.7,2.4,3.3,4.2,2.5,7.1h-0.5c-5.4-5.5-3.1-20.7-15.2-16c-0.8,0.7,0.5,1.3,0.6,2c2.7,4,6.5,7.6,9.6,11.6c0.5,1.4,0.1,2.6-0.6,3.8
		c-7.1,3.6-15.6,4.3-23.4,6.2c-1.7,0.2-4,0.6-5-1.1c0.6-3.8,4.6-5.8,6.9-8.6c-0.9-2-1.3-4.6-1.3-7.1c2.4-2.9,4.9-4.3,7.5-6.8
		c0-1.3-1.2-2.3-2.3-3c-1.3-0.4-2.7,0-3.7,0.8c-2.1,1.7-1.7,4.6-3.1,6.4c-0.6,0.2-0.8-0.4-1-0.7c-0.4-1.4,1.2-1.9,1.4-3.1
		c0.4-2,1.1-3.9,2.5-5.5c1.5-0.5,3-1.3,4.5-0.4c1.9,1.1,1.9,4.5,4.2,3.9c1.2-0.9,0.1-2.5,0.5-3.8c3.1-1.9,0.4-4.5,0.8-7.1
		c1.7-0.6,3.6-0.1,5,0.8c0.7-1.3,1.5-3.6,0.4-5.1c-2.1-1.4-3,4.4-3.6,0.1c0-1.8,1.1-3.3,2.6-4.3c1.1-0.2,1.9,0.8,2,1.8
		c0,2.4,0.1,5.2-0.7,7.5c0.2,0.8,1.2,0.2,1.5-0.1c5-4.9,4.3-12.8,10-17c2.4-0.9,4.3,0.9,4.9,2.8c0,0.4,0.1,0.7,0.4,0.8h0.5
		c3.8-3.9,5.6-8.9,8.6-13.3c0.9-1.4,2.7-0.7,4-0.5c0.6-1.1,0.6-2.5,0.5-3.8l-2.1-2.7c1.3,0,2.5,2.7,3.4,0.6c0-1.5-2.3-1.7-2.7-3.2
		c0.8-1.3,2.6-1.8,4.2-2c1.5,0.8,3.4,0.8,4.2-1.1c0.5-1.1,1-2.3,0.7-3.4c-0.7-1-1.7-1.2-2.7-1.3c-0.7,0.5-0.9,1.5-0.2,2.1
		c-0.9,0-2.1-0.8-2.6-1.8c-0.1-0.7,0.1-1.5,0.8-1.7c1.9-0.1,3.2,1.1,4.6,1.9c0.7-1.3,0.4-2.9,0.2-4.4c-0.2-4.2-4.9-8.8-0.7-12.2
		c1.9-0.1,3.9,0.5,5.6,1.5l3.8-0.6c0.8-2.3,2.5-5.1,5.2-5.2C255.4,244.9,262.5,246.1,270.3,245.9 M83.8,251.6
		c3.1,3.3,5.5,6.9,7.5,10.6c0.2,1.4-0.6,2.7-1.9,3.1c-1.3,0.5-3.1,0.4-4.5,0.2c0.9-0.5,3.7-0.7,3.8-2.7c-1.9-5.4-6.1-10-10-14.1
		c-2.9,2-2.5,6.1-4.6,8.7c-1.5,1.4-2.3,4.5-5,3.6c-0.1-1.4,0.6-2.9,0.9-4.3l1.2,0.6c3.1-3,2.4-11.2,9-9.2L83.8,251.6z M261.2,253.4
		c-2.4-0.7-4.4-5-7.1-2.4c-0.2,1.2,1.3,1.1,1.3,2.1c-1.4-0.8-4-1.8-3.6-3.8C255.5,246.6,258.4,251.5,261.2,253.4 M238.7,250.9
		c-3.9,5-1.7,12.8,0.6,17.8l1.2,1.3c-0.1,3.4-1.4,6.5-1.8,9.9c-2.1-0.6-3.8-4.4-6.2-2.3c-0.1,1.2,1.1,2.3,2.1,2.8l0.4-1.4
		c1.2-0.1,2.3,1.2,3.3,1.8c0.1,0.8-0.2,1.8-0.7,2.6c-2.6-0.7-5-2.9-7.5-4.3c-0.4-1.4,1.2-2.5,2.1-3.2c0.8-0.5,2,0,2.6-1
		c-1.3-1.9,1.3-3.3,1.4-5.1c2.1-6.9-2.6-12.2-2-18.5c0.4-0.6,0.9-1.2,1.5-1.3C236.9,250.3,237.9,250.1,238.7,250.9 M269.8,257.2
		c-0.5,0.8-1.4,0.1-1.9-0.5c-1.1-1.2-1.5-2.7-1.9-4.4c1.1,0.6,0.8,3.1,2.1,2.6l1.1-4.7C271.9,251.6,270,255,269.8,257.2
		 M242.6,252.8l-0.4-0.4h0.4V252.8z M100.5,253.5c-1.2,2.3,2,1.7,1.7,3.8c-0.2,0.8,0,2.4-1.1,2.5c-0.8-0.1-1.9-0.5-2-1.3
		c0.2-0.7,0.6-1.4,0.2-2.1c-1.1-0.6-2.6-1.4-1.5-2.8C98.4,252.4,99.8,253,100.5,253.5 M81.2,257.4c-0.2,1-0.1,2.3-1.2,2.5
		c-0.6-0.2-1.8,0-1.9-1.1l0.6-2.5C79.7,256.1,80.9,256.5,81.2,257.4 M267.8,265.7c-1.9-0.1-3.7-3.6-5.9-1.9
		c-0.2,0.7,0.2,1.2,0.6,1.7c-1.2,0-2.7-1.5-3.3-2.6c0.2-0.6,0.6-1.1,1.2-1.3C263.3,261.7,265.4,264,267.8,265.7 M246.5,266.3
		c0.2,0.8,0,1.8-0.9,2H245C245.2,267.5,245.6,266.3,246.5,266.3 M97.7,268.5c0.6,1.2-1.5,2.8,0.7,3.1c0.6,2.5,3.2,4,5,5.8
		c-0.9,1.1-2.4,2.6-4,2.1c0.1-0.9,0.7-2.3,0.4-3.3c-1.1-1.7-2.6-2.3-4.3-2.4c-6.5,1.5-5.3,9-7,13.9c-2.1,0.9-3.7,3.2-6.1,3.7
		c-0.1-0.2-0.2-0.6-0.5-0.8c-2.9,2-3.6-2.6-5.6-3.9c2-0.2,4.2-0.4,5.6-1.9c-0.4-1.1-1.7-1.1-2.6-1.4c-0.7,0.1-1.9-0.1-2.1,0.8
		c0.4,0.5,1.5,0,1.4,0.9c-0.9,0.4-2.4,0.9-3.4,0.4c-1.3-1.9-3.4-3.8-3-6.1c1.7-0.2,3.9,0.5,5.8,0c1.8-3.9,5.5-1.5,8.6-2
		c1.1-0.1,2.3-0.1,2.7-1.2c0.1-0.8-0.7-1.4-1.3-1.7c-1.3-0.1-3.1-0.9-4.2,0.2c0.5,0.8,2.7,0,2.4,1.7c-1.4,0.5-3.2,0.2-4.3-0.2
		c3.9-3.9,8.1-7.5,13-9.6C96.4,266.1,97.3,267.3,97.7,268.5 M229.3,274.2c-0.4-0.5,0.4-0.9,0.8-0.7L229.3,274.2z M96.4,277.4
		c0.2,1.1,0.4,2.8-1.2,3.1c0.5,0.9,1.5,0,2.5,0.5c-1.8,1.7-3.9,3.3-6.2,4.3c0.7-3,0.6-6.9,2.5-9.6C95.2,275.3,95.9,276.7,96.4,277.4
		 M85.1,283.3c0.5,1.8-1.8,1.1-2.7,1.1c-0.1-0.9-0.2-2.4,0.2-3.2C84,281,85.2,281.7,85.1,283.3 M259.7,289l-2.6,1.8
		c-0.6-0.2-1.3-1.1-0.9-2c0.2-0.9,1.3-1.5,2.1-1.9C259.3,287,259.3,288.2,259.7,289 M216.3,289.8c-0.1,1.8-2.4,1.2-3.7,1.5
		c-0.7-0.6-0.4-1.8-0.1-2.5C213.7,288.8,216.8,286.8,216.3,289.8 M110.1,290.6c-0.1,0-0.6-0.8-0.4-1.2L110.1,290.6z M87,294.9
		l-1.2-0.6c-0.8,0.6-0.1,1.9-0.6,2.7c-1.1-0.2-1.7-1.5-2.3-2.3c1.1-1.5,3.1-2.8,4.6-4.2C88.2,291.9,87.3,293.4,87,294.9
		 M234.1,292.4c0.8,0.6,0.7,1.4,0.8,2.1c-0.9,0.2-1.5,0.9-2.5,0.9l-1.2-1.9c-1.2,0.1-3,1.1-3.4-0.7c-0.6-1.5,0.9-1.7,1.9-2.1
		C231.5,290.8,231.9,293.3,234.1,292.4 M109.2,291.4c2.6,2.7,6.3,3.3,9.9,4c-0.5,1.5-2.1,3.2-3.3,4.5c-2.1,0.1-4.3-0.2-6.1,0.6
		c0.1-1.8,1.4-3.7,0.5-5.7l-2.5-3C108,291.4,108.6,291.4,109.2,291.4 M224.6,292.7c-1.2,2.6,0.9,5.7-0.7,8c-2-0.9-3.9-3.6-6.4-2.1
		c-2.1,1.4-2.1,3.9-2,6.2c-1.2-1.1-4-0.2-3.9-2.6v-0.8C215.7,297.8,220,294.7,224.6,292.7 M129.8,298.7c0.5,1.9-1.5,3.1-2.7,4
		c-2.4,1.1-4.2-1.7-6.5-1.8l-1.9-0.5c0.5-1.9,1.9-3.4,3.1-4.8C124.9,295.6,128,295.9,129.8,298.7 M250.4,300.9
		c-1.3-1.1-2.6-3.3-4.4-2.5l0.7,1.7c-0.5,0.2-1.2,0.4-1.4-0.1c-0.8-0.9-2.1-2-1.7-3.4c1.9-1.3,3.4,0.6,4.9,1.5
		C249.4,299,250.1,299.9,250.4,300.9 M141,301.6v2.9c-1.9,4.6-3.9,9.3-5.3,14.1c0.9,0.9,2.5,0.5,3.6,1.1c1.5-2.1,1.5-5.1,2.7-7.5
		c1.3-3.3,2.6-7.6,6.5-8.7c1.7,0.1,3.3,1,3.9,2.6c0.5,0.7,0.2,2.4,1.8,1.9c5.9-0.4,13.9-2.5,18.9,1.3c3.7-2.3,7.3-5.6,12-4.4
		c1.7,0.8,2.3,2.3,3.2,3.7c0.5,2.1,0.5,4.3-0.6,6.1c0.1-1.5-0.1-3.9-1.3-5.5c-1.3-1.5-3.4-1.8-5.5-1.4c-2.3,0.7-4.4,1.9-6.5,3.3
		l-0.6,3.8c1.2,0.7,3,1.2,3.1,2.9c-0.2,2-1.5,4.3-3.6,4.9c-2.5,0.6-3.4-2-4.5-3.6c0.1-0.4-0.4-0.8-0.7-0.7c-1.4,0.2-3.1,0.7-3.8,2.1
		c-0.1,0.7-0.4,1.3-0.2,2.1c2.3,0.6,4.4-0.1,6.9,0.6c1.7,0.4,3.3,1.8,3.9,3.3c2,6.1-4.4,9.4-5.5,14.6c-0.7,1.3-1.7,2.4-3,3.6
		c0.8-3.2,6.9-7.4,2.3-10.6c-0.8,0.2-1.3,1.2-1.7,1.9h-0.4c0.5-1.8,1.5-3.4,3.2-4.3c1,0,1.4,0.9,1.8,1.7c0.2,0.6,0.4,1.2,0.5,1.7
		c1.5-0.7,1.5-2.6,1.5-4.3c0.5-2.3-1.7-3.9-3.2-5c-2-0.8-4.5-0.8-6.8-0.5c-1.3,5.8-1.4,12.4-2.1,18.5c-0.2,0.5-0.6,1.3-1.3,0.9
		c0.1-6.3,0.4-12.6,0.9-18.8c-1.7-0.7-3.2,0.4-4.8,0.7c-1.4,0.8-3.6,0.9-4.2,2.6c-0.6,2.5,1.9,4.9-0.4,6.8c-0.9-1.1-2-1.9-3.4-2
		c-1.9,0.1-2.6,2.5-4.3,2.9c-1.2-4.3,4-12.1-3.3-13.7h-0.4c-1.7,5-2.5,10.5-4.5,15.3c-0.5,0.7-1.1,0.9-1.8,1.2
		c0.2-2.4-1.1-4.5,0-6.7l1.3,0.5c1.3-3.7,2.6-7.3,3.2-11.2c-1.1-1.1-2.6-1-3.9-1.3c-2.8,4.4-4.5,9.4-5.6,14.5
		c-0.7,0.5-0.8,1.2-1.8,1.3c0.7-5.7,2.9-10.7,5.3-15.7l-0.6-0.6c-2.5-0.4-5.8-0.7-8.1,0.4c0.1,1.3,0.4,3-1.1,3.8h-0.4
		c-0.7-2-0.1-4,0.8-5.7c3.1-1.5,7-0.7,10.3-0.7c2.1-4.5,4-9,5.5-13.8c0.2-1.8-1.8-2.5-3-3.2c-1.3,0-3.1-1.2-4,0.5
		c0.1,3,5.9,1.5,4,5.3c-0.8,1.7-2.6,2.5-4.3,2.7c-0.8,0-1.8-0.4-2-1.3c-0.2-3.3,0-7.2,3-9C135.7,298.5,139.4,299.1,141,301.6
		 M248.2,305c-1.3,0.8-3.7,1.1-2.7,3.3c-0.8,0.7-2,0.9-3.2,1.2c-0.6-0.6-0.6-1.5-0.5-2.4l2.4-1.3c-1.2-2.7,1.8-2.6,3.1-3.6
		C248.2,302.7,248.5,304,248.2,305 M100.2,305.4c-1.3,0.1-2.6-1.1-4-1.1c-0.7,1.8,4.6,3.2,1.1,4c-2.5-0.2-3.2-2.8-4.9-4.3
		c-0.4-1.4,1.3-1.1,2-1.3C96.6,303.1,98.3,304.5,100.2,305.4 M90.2,306.2c1.4,0,3,0.6,2.8,2.3c0.6,1.2-0.1,2.1-1.4,2.1
		c-2.3,0-0.5-4.8-3.9-3.3c-0.5-0.7-0.8-1.9-0.8-3C88.4,303.1,90.1,304.5,90.2,306.2 M134.4,307.1c0.4,0.6-0.4,0.9-0.8,0.9
		c-1.2,0-1.5-1.2-1.3-2.1C133.1,306,133.8,306.4,134.4,307.1 M150.7,308.3c-0.4,1.3-2,1.2-2.9,2.3c-1.2,1.8-1.9,4.3-0.9,6.4
		c0.6,1.3,2.4,0.7,3.2,0.1c2.3-1.3,2.6-3.7,2.7-5.9c4.6-1.4,10.2-1.7,15.2-0.9c1,0.4,1.9,0.6,2.6,1.3l-2.4,4.3
		c-1.8,0.6-3.7,1.8-4.6,3.6c-0.2-2.5,0.4-6.1-2.7-7.1c-2.1-0.7-4.6,0-6.5,0.8c-2.6,1.8-2.9,5.5-2.4,8.4c0.5,1.1,1.1,2.4,2.3,2.8
		c1.4,0.4,2.4-0.6,3.4-1.3c1.3-1.2,1.8-2.9,1.5-4.5c-1.4-2-4.4-0.7-5.9-2.3c1.4-1.8,4.4-2.1,6.7-1.3c2.7,1.3,1.8,4.8,1.5,7.1
		l-0.2,1.2c-3.9,1.7-10.7,1.8-10.6,7.8c-2,0.4-3.7,1.5-5,3.6l-0.5-0.5c-0.2-4.3,4-10.6-1.9-13c-0.7-0.2-1.3-0.7-1.9-1.2
		c1.1-4.6,2.4-9.2,4.2-13.4C147.3,305.2,150.1,306,150.7,308.3 M229.4,306.4H229c0-0.2,0.2-0.4,0.4-0.2V306.4z M220.7,306.3
		c0.1,1.5-2.1,2.7-1.7,4.3c1.3-0.5,2.5-1.4,3.7-2.1c0.7,2.1-1.2,3.6-2.9,4.4c-0.9,0.4-2.1,1.7-3.3,0.6
		C216.2,310.1,218.3,307.9,220.7,306.3 M210.8,307.7c0.1,3.4,0.4,7.7-3.2,9.3c-1.7,0.1-3.9,0.6-4.9-1.1
		C204,312.3,207.2,308.8,210.8,307.7 M236,314.2c1.2-0.2,2.1-1.5,2.8-2.6c1.2,0.5,1.3,2,0.9,3.2c-1.2,1.2-3,3.3-4.8,2.7
		c-1.5-2.6,0.4-5.2,1.4-7.5C236.9,311.5,235.6,312.9,236,314.2 M95.2,310.2c-0.2,1.7,1.5,3.8-1.1,4.3c-0.6,0.2-0.6-0.8-0.6-1.4
		C93.6,312,94.2,310.8,95.2,310.2 M181.5,311.4c-0.2,0.7,0,1.5-0.7,2c-1.1-0.4-3.6-0.2-2.4-2.3C178.8,309.5,181.1,310.4,181.5,311.4
		 M151.2,311.4c0,1.5,0.2,3.7-1.8,3.8c-0.8-0.6-1.3-1.8-1.1-3C149,311.5,150.2,311.3,151.2,311.4 M129.3,313.8
		c0.2,1.1-0.8,1.8-1.5,2.1c-0.7-0.5-1.8-1.2-2-2.1c-0.1-0.7,0.6-1.2,1.2-1.5C128,312.2,128.6,313.2,129.3,313.8 M172.8,314.5
		c-0.2,1-1.3,1-2.1,1c-0.5,0-0.9-0.6-0.6-1.1l1.9-1.5C172.8,313,172.6,314,172.8,314.5 M174.8,319.1c0,0.6-0.6,0.7-1.1,0.8
		c-0.8,0.1-1.5-0.6-1.9-1.3C172.3,317.9,174.2,318,174.8,319.1 M226.9,318.6c-0.6,1.1-1.9,1.5-2.8,2.1c-0.2-0.7,0.6-1.7,1.1-2.4
		C225.7,318.5,226.5,318.2,226.9,318.6 M157.2,320.8c0.2,0.7-0.6,0.8-0.9,1.1c-0.7,0-1.4-0.6-1.8-1.2l0.2-0.8
		C155.7,319.8,156.6,320.1,157.2,320.8 M112.7,322.9c-1.8,0-3.6-0.6-5.1,0c1.2,1.1,2.7,2.1,4.4,2.6c-0.7,0.8-2,1.4-3.2,0.9
		c-1.5-0.7-3.1-1.8-4.4-3.2c0-1,0.8-1.5,1.5-1.8C108.3,321.7,111,321.6,112.7,322.9 M149.5,324.5c-0.6,0.6,0,1.3,0.2,1.8
		c0.5,0.4,0.7,1.2,0.4,1.8c-0.4,0.6-1.3,1.9-1.8,0.7c-0.7-0.6-1.3-1.7-0.5-2.4c1.2-1.3-1.5-2.1-0.8-3.6l1.5-1.2
		C149.3,322.3,150.5,323.4,149.5,324.5 M190.9,323c-0.4-0.1-0.9-0.5-0.5-1.1C190.9,322.1,191,322.6,190.9,323 M130,324.8
		c-0.4,2.7-3.4,4-5.5,5.6c1.2-1.4,4-2.6,3.3-4.8c-0.4-1.4-1.9-0.2-2.4-0.2c0.1-1.2,1.7-1.8,2.6-2.5
		C129.4,322.7,129.9,323.9,130,324.8 M191.6,327.2c3.1,3.2,7,5.6,9.5,9.2c-6.9,3.1-14.5,4.3-22,5.8c-1.3,0-2.7,0.4-3.6-0.8
		c1-2.4,3.6-4.5,5.4-6.2c1.4,1.2,3,2.6,4.9,1.7c1.8-1.4,2-3.6,2.1-5.6c0-1.2-1.1-2.1-2.1-2.3c-1.8,0.4-3.9,2.5-5.7,0.7
		c2.1-2.7,5-4.6,7.7-6.4C189.3,324,190.2,325.9,191.6,327.2 M200.7,324.2v2.3c-0.9-0.4-3.4,0.9-3.2-1.1
		C196.8,323,200,323.4,200.7,324.2 M117.2,328.7c0.2,1.1-0.8,1.8-1.5,2.1c-1.3,0-1.5-1.5-2.3-2.3c-0.1-1.2,1.2-1.1,1.8-1.7
		C116.2,327.1,116.5,328.1,117.2,328.7 M219.9,330c0.4,1.9-2,1.1-3.1,1.3c-0.9-0.2-0.8-1.8-0.6-2.6
		C217.3,328.6,220.4,327.7,219.9,330 M124.1,332.8c-0.2,0.7-0.7,1.3-1.4,1.7c-1.1,0.6-1.4-0.8-2-1.4c-0.4-0.5,0-0.9,0.2-1.4
		C122.1,329.8,123.4,331.8,124.1,332.8 M142.9,333.4c-0.1,2.8-1.8,5.3-3.8,7.4c0.1-1.8,3.9-4.8,1.1-7c-0.7,0.2-1.1,1.2-1.8,1.3
		c-0.4-1.3,0.9-2.6,2.1-3.2C141.5,331.1,142.7,332.2,142.9,333.4 M186.2,332.7c0,0.6-0.7,1.3-1.3,1.3c-0.5-0.4-1.4-0.1-1.5-0.7
		C184.2,332.8,185.5,331.5,186.2,332.7 M193.3,334.4c0.2,1.5-0.9,2.4-2.4,2.1c-0.6,0-1.3-0.1-1.2-0.9c0.1-0.7,0.1-2,1.2-1.9
		C191.7,334,193.1,333.1,193.3,334.4 M157.2,336.8c-0.1,0.7-0.8,1.3-0.6,1.9l2.1,1.8c0.1,0.8-0.5,1.4-1.1,2.1
		c-0.9-0.1-1.5-0.9-2.3-1.5c1.2-1.7-0.2-2.9-1.7-3.6c-0.7-0.7,0.1-1.4,0.5-2C155.3,334.6,156.6,335.9,157.2,336.8 M150.9,341.1
		c0.1,0.8-0.4,1.5-1.1,2.1c-0.9-0.1-1.5-1-2.1-1.4c0-0.8,0.4-1.5,1.1-1.9C149.7,340,150.3,340.5,150.9,341.1"/>
</g>
</svg>
